<svg width="16" height="16" viewBox="0 0 16 16" fill="none" xmlns="http://www.w3.org/2000/svg">
<path d="M11.3341 13.3346H4.00081C3.64719 13.3346 3.30805 13.1942 3.058 12.9441C2.80796 12.6941 2.66748 12.3549 2.66748 12.0013V4.66797C2.66748 4.31435 2.80796 3.97521 3.058 3.72516C3.30805 3.47511 3.64719 3.33464 4.00081 3.33464H6.66748V4.66797H4.00081V12.0013H11.3341V9.33463H12.6675V12.0013C12.6675 12.3549 12.527 12.6941 12.277 12.9441C12.0269 13.1942 11.6878 13.3346 11.3341 13.3346ZM7.80081 9.1393L6.86081 8.19664L11.0561 4.0013H8.66748V2.66797H13.3341V7.33464H12.0008V4.94464L7.80081 9.1393Z" fill="#F7F8F8"/>
</svg>
