<svg xmlns="http://www.w3.org/2000/svg" width="38" height="38" fill="none" viewBox="0 0 38 38">
  <g clip-path="url(#a)">
    <path fill="#F7F8F8" d="M6.333 9.5H3.167v22.167a3.176 3.176 0 0 0 3.166 3.166H28.5v-3.166H6.333V9.5Zm25.334-6.333h-19A3.176 3.176 0 0 0 9.5 6.333v19a3.176 3.176 0 0 0 3.167 3.167h19a3.176 3.176 0 0 0 3.166-3.167v-19a3.176 3.176 0 0 0-3.166-3.166Zm0 22.166h-19v-19h19v19ZM15.833 14.25H28.5v3.167H15.833V14.25Zm0 4.75h6.334v3.167h-6.334V19Zm0-9.5H28.5v3.167H15.833V9.5Z"/>
  </g>
  <defs>
    <clipPath id="a">
      <path fill="#fff" d="M0 0h38v38H0z"/>
    </clipPath>
  </defs>
</svg>
