<svg xmlns="http://www.w3.org/2000/svg" width="38" height="38" fill="none" viewBox="0 0 38 38">
  <g clip-path="url(#a)">
    <path fill="#fff" d="M14.25 33.25c0 .87.713 1.583 1.583 1.583h6.334c.87 0 1.583-.712 1.583-1.583v-1.583h-9.5v1.583ZM19 3.167c-6.112 0-11.083 4.971-11.083 11.083 0 3.768 1.884 7.078 4.75 9.088v3.579c0 .87.712 1.583 1.583 1.583h9.5c.87 0 1.583-.712 1.583-1.583v-3.579c2.866-2.01 4.75-5.32 4.75-9.088 0-6.112-4.971-11.083-11.083-11.083Zm4.512 17.575-1.345.95v3.641h-6.334v-3.641l-1.345-.95a7.911 7.911 0 0 1-3.405-6.492A7.92 7.92 0 0 1 19 6.333a7.92 7.92 0 0 1 7.917 7.917 7.912 7.912 0 0 1-3.405 6.492Z"/>
  </g>
  <defs>
    <clipPath id="a">
      <path fill="#fff" d="M0 0h38v38H0z"/>
    </clipPath>
  </defs>
</svg>
